ffmpeg version 8.0.1 Copyright (c) 2000-2025 the FFmpeg developers
  built with Apple clang version 16.0.0 (clang-1600.0.26.6)
  configuration: --prefix=/opt/homebrew/Cellar/ffmpeg/8.0.1 --enable-shared --enable-pthreads --enable-version3 --cc=clang --host-cflags= --host-ldflags= --enable-ffplay --enable-gnutls --enable-gpl --enable-libaom --enable-libaribb24 --enable-libbluray --enable-libdav1d --enable-libharfbuzz --enable-libjxl --enable-libmp3lame --enable-libopus --enable-librav1e --enable-librist --enable-librubberband --enable-libsnappy --enable-libsrt --enable-libssh --enable-libsvtav1 --enable-libtesseract --enable-libtheora --enable-libvidstab --enable-libvmaf --enable-libvorbis --enable-libvpx --enable-libwebp --enable-libx264 --enable-libx265 --enable-libxml2 --enable-libxvid --enable-lzma --enable-libfontconfig --enable-libfreetype --enable-frei0r --enable-libass --enable-libopencore-amrnb --enable-libopencore-amrwb --enable-libopenjpeg --enable-libspeex --enable-libsoxr --enable-libzmq --enable-libzimg --disable-libjack --disable-indev=jack --enable-videotoolbox --enable-audiotoolbox --enable-neon
  libavutil      60.  8.100 / 60.  8.100
  libavcodec     62. 11.100 / 62. 11.100
  libavformat    62.  3.100 / 62.  3.100
  libavdevice    62.  1.100 / 62.  1.100
  libavfilter    11.  4.100 / 11.  4.100
  libswscale      9.  1.100 /  9.  1.100
  libswresample   6.  1.100 /  6.  1.100
[AVFoundation indev @ 0x998c74140] Configuration of video device failed, falling back to default.
Input #0, avfoundation, from '1':
  Duration: N/A, start: 569317.689633, bitrate: N/A
  Stream #0:0: Video: rawvideo (UYVY / 0x59565955), uyvy422, 1280x720, 5 tbr, 1000k tbn, start 569317.689633
Stream mapping:
  Stream #0:0 -> #0:0 (rawvideo (native) -> h264 (libx264))
Press [q] to stop, [?] for help
[libx264 @ 0x99b970700] using cpu capabilities: ARMv8 NEON DotProd I8MM
[libx264 @ 0x99b970700] profile High 4:2:2, level 3.1, 4:2:2, 8-bit
Output #0, null, to 'pipe:':
  Metadata:
    encoder         : Lavf62.3.100
  Stream #0:0: Video: h264, yuv422p(tv, progressive), 1280x720, q=2-31, 10000 kb/s, 5 fps, 5 tbn
    Metadata:
      encoder         : Lavc62.11.100 libx264
    Side data:
      cpb: bitrate max/min/avg: 0/0/10000000 buffer size: 0 vbv_delay: N/A
frame=    0 fps=0.0 q=0.0 size=       0KiB time=N/A bitrate=N/A speed=N/A elapsed=0:00:00.50    frame=    0 fps=0.0 q=0.0 size=       0KiB time=N/A bitrate=N/A speed=N/A elapsed=0:00:01.01    frame=    0 fps=0.0 q=0.0 size=       0KiB time=N/A bitrate=N/A speed=N/A elapsed=0:00:01.51    frame=    0 fps=0.0 q=0.0 size=       0KiB time=N/A bitrate=N/A speed=N/A elapsed=0:00:02.01    frame=    2 fps=0.8 q=0.0 size=N/A time=00:00:00.40 bitrate=N/A speed=0.159x elapsed=0:00:02.52    frame=    5 fps=1.7 q=6.0 size=N/A time=00:00:01.00 bitrate=N/A speed=0.331x elapsed=0:00:03.02    frame=    7 fps=2.0 q=8.0 size=N/A time=00:00:01.40 bitrate=N/A speed=0.397x elapsed=0:00:03.52    frame=   10 fps=2.5 q=11.0 size=N/A time=00:00:02.00 bitrate=N/A speed=0.496x elapsed=0:00:04.03    frame=   12 fps=2.6 q=12.0 size=N/A time=00:00:02.40 bitrate=N/A speed=0.529x elapsed=0:00:04.53    frame=   15 fps=3.0 q=13.0 size=N/A time=00:00:03.00 bitrate=N/A speed=0.595x elapsed=0:00:05.03    frame=   17 fps=3.1 q=13.0 size=N/A time=00:00:03.40 bitrate=N/A speed=0.613x elapsed=0:00:05.54    frame=   20 fps=3.3 q=14.0 size=N/A time=00:00:04.00 bitrate=N/A speed=0.661x elapsed=0:00:06.04    frame=   23 fps=3.5 q=14.0 size=N/A time=00:00:04.60 bitrate=N/A speed=0.702x elapsed=0:00:06.55    frame=   25 fps=3.5 q=14.0 size=N/A time=00:00:05.00 bitrate=N/A speed=0.708x elapsed=0:00:07.05    frame=   27 fps=3.6 q=14.0 size=N/A time=00:00:05.40 bitrate=N/A speed=0.714x elapsed=0:00:07.56    frame=   30 fps=3.7 q=14.0 size=N/A time=00:00:06.00 bitrate=N/A speed=0.744x elapsed=0:00:08.06    frame=   32 fps=3.7 q=14.0 size=N/A time=00:00:06.40 bitrate=N/A speed=0.747x elapsed=0:00:08.56    frame=   35 fps=3.9 q=14.0 size=N/A time=00:00:07.00 bitrate=N/A speed=0.771x elapsed=0:00:09.07    frame=   37 fps=3.9 q=13.0 size=N/A time=00:00:07.40 bitrate=N/A speed=0.773x elapsed=0:00:09.57    [out#0/null @ 0x9971f5740] video:16725KiB audio:0KiB subtitle:0KiB other streams:0KiB global headers:0KiB muxing overhead: unknown
frame=   50 fps=5.1 q=-1.0 Lsize=N/A time=00:00:10.00 bitrate=N/A speed=1.03x elapsed=0:00:09.73    
[libx264 @ 0x99b970700] frame I:1     Avg QP: 0.00  size:808029
[libx264 @ 0x99b970700] frame P:49    Avg QP: 9.12  size:333038
[libx264 @ 0x99b970700] mb I  I16..4: 100.0%  0.0%  0.0%
[libx264 @ 0x99b970700] mb P  I16..4:  9.6%  0.0%  0.0%  P16..4: 90.3%  0.0%  0.0%  0.0%  0.0%    skip: 0.1%
[libx264 @ 0x99b970700] final ratefactor: 15.42
[libx264 @ 0x99b970700] coded y,uvDC,uvAC intra: 41.6% 99.5% 97.4% inter: 87.5% 99.8% 97.4%
[libx264 @ 0x99b970700] i16 v,h,dc,p: 68%  7% 12% 13%
[libx264 @ 0x99b970700] i8c dc,h,v,p: 48% 15% 21% 16%
[libx264 @ 0x99b970700] kb/s:13701.52
